<?xml version="1.0" encoding="UTF-8" standalone="no"?>
<!DOCTYPE svg PUBLIC "-//W3C//DTD SVG 1.1//EN" "http://www.w3.org/Graphics/SVG/1.1/DTD/svg11.dtd">
<svg width="100%" height="100%" viewBox="0 0 1536 320" version="1.1" xmlns="http://www.w3.org/2000/svg" xmlns:xlink="http://www.w3.org/1999/xlink" xml:space="preserve" xmlns:serif="http://www.serif.com/" style="fill-rule:evenodd;clip-rule:evenodd;stroke-linejoin:round;stroke-miterlimit:2;">
    <g transform="matrix(1.95133,0,0,1.95133,266.184,158.504)">
        <g transform="matrix(1,0,0,1,-128,-80)">
            <g>
                <path d="M39.371,0L95.335,94.22L95.384,51.571L127.857,102.331L94.445,154.841L39.058,64.956L38.93,159.058L0,159.058L0,0L39.371,0ZM134.265,44.468L150.468,69.906L150.673,70.259C161.261,54.149 179.249,44.455 198.527,44.468C229.774,44.468 255.182,70.915 255.801,102.051L255.812,103.103L255.782,103.103L255.781,103.499C255.725,106.084 254.344,108.469 252.113,109.801C249.802,111.182 246.93,111.225 244.579,109.914C242.309,108.648 240.858,106.306 240.724,103.723L240.715,103.446L240.711,103.088C240.586,98.164 237.878,96.166 234.321,94.693L233.795,94.48L233.258,94.274L232.711,94.072L229.873,93.065L229.293,92.852L228.712,92.632L228.132,92.403C228.035,92.364 227.938,92.324 227.841,92.284L227.263,92.038L226.687,91.779C224.392,90.711 222.198,89.282 220.452,87.009L220.248,86.735L220.044,86.45L219.74,86.003L219.332,85.373L218.042,83.309L217.572,82.581L217.201,82.028L216.944,81.657L216.541,81.099L216.26,80.727L215.969,80.355C215.919,80.294 215.869,80.232 215.819,80.17L215.51,79.802C212.469,76.249 207.711,73.057 198.507,73.057C190.895,73.054 183.595,76.077 178.213,81.459C172.831,86.841 169.808,94.142 169.811,101.753C169.832,102.839 170.088,103.905 170.562,104.879L170.711,105.168L204.955,159.058L167.188,159.058L150.468,133.825L134.04,159.058L96.284,159.058L132.328,102.311L95.394,44.468L134.265,44.468ZM255.851,111.224C256.235,113.907 255.855,116.643 254.755,119.12C253.433,122.178 251.569,122.731 250.327,122.702L250.121,122.692L249.928,122.673L249.749,122.646L249.512,122.598L249.316,122.545L249.063,122.458L248.971,122.416L248.86,122.353L248.693,122.249L248.558,122.156L248.41,122.045L248.253,121.916C248.227,121.893 248.2,121.87 248.173,121.845L248.012,121.689C247.314,120.973 246.689,119.749 247.799,118.044C248.62,116.776 249.756,116.065 250.946,115.426L252.147,114.791C253.586,114.015 254.974,113.108 255.851,111.224ZM134.363,0L134.363,40.437L134.275,40.887L95.394,40.887L95.384,40.437L95.433,0L134.363,0Z" style="fill:rgb(1,47,85);fill-rule:nonzero;"/>
                <path d="M194.368,84.984C185.054,84.807 176.639,90.518 173.362,99.239C178.817,91.082 189.202,87.804 198.35,91.353C202.577,93.075 208.134,95.854 212.537,94.366C208.35,88.49 201.584,84.996 194.368,84.984Z" style="fill:rgb(150,216,233);fill-rule:nonzero;"/>
                <path d="M238.484,104.121C238.484,99.356 235.892,98.251 230.51,96.294C226.518,94.905 221.988,93.339 218.691,89.034C218.046,88.183 217.449,87.224 216.813,86.207C215.388,83.571 213.456,81.244 211.128,79.358C207.988,77.049 203.869,75.924 198.527,75.924C187.807,75.931 178.151,82.401 174.067,92.312C179.23,85.148 187.81,81.266 196.599,82.118C205.389,82.97 213.063,88.428 216.754,96.45C218.598,99.493 222.234,100.946 225.667,100.012C230.921,98.887 230.559,103.857 238.494,105.54L238.484,104.121Z" style="fill:rgb(72,196,229);fill-rule:nonzero;"/>
            </g>
        </g>
    </g>
    <g id="Number-in-OpenSans" serif:id="Number in OpenSans" transform="matrix(1.92399,0,0,1.92399,29.4212,3.0359)">
        <g transform="matrix(223.129,0,0,223.129,738.131,160.12)">
        </g>
        <text x="292.418px" y="160.12px" style="font-family:'OpenSans-Bold', 'Open Sans', sans-serif;font-weight:700;font-size:223.129px;fill:rgb(1,47,85);">15.3</text>
    </g>
</svg>
